<svg width="112" height="110" viewBox="0 0 112 110" fill="none" xmlns="http://www.w3.org/2000/svg">
<g clip-path="url(#clip0_608_203)">
<g clip-path="url(#clip1_608_203)">
<path d="M32.4107 86.3986C31.1782 86.7288 30.1337 86.3134 29.2772 85.1525C28.4532 83.9829 27.6698 81.9681 26.9272 79.1082C25.8301 74.8832 25.3879 70.7088 25.6006 66.5848C25.6477 65.5641 25.9408 64.7556 26.4797 64.1593C27.0427 63.5218 27.9242 63.0423 29.1242 62.7208C29.7729 62.547 30.248 62.5066 30.5497 62.5995C30.8513 62.6925 31.0612 62.9665 31.1794 63.4215C31.3144 63.9415 31.375 65.1766 31.3611 67.1269C31.3743 68.5138 31.4102 69.7208 31.4688 70.7479C31.5273 71.7751 31.6774 73.021 31.919 74.4857C32.2635 71.404 32.8728 68.8075 33.7469 66.6962C34.6209 64.585 35.5933 62.9861 36.6641 61.8997C37.7674 60.8046 38.8541 60.1137 39.9244 59.8269C42.0326 59.262 43.3609 60.0358 43.9094 62.1482C44.0192 62.5707 44.139 63.6336 44.2691 65.3368C44.3472 66.7063 44.4284 67.5535 44.5128 67.8785C44.8082 69.016 45.3613 69.4761 46.1721 69.2588C47.0802 69.0155 48.0622 67.9876 49.1179 66.1753C49.4298 65.6398 49.8128 65.3113 50.2669 65.1896C50.6885 65.0766 51.0635 65.1847 51.3918 65.5139C51.7441 65.8018 52.0004 66.2546 52.1607 66.8721C52.473 68.0745 52.3934 69.1039 51.9219 69.9602C51.2586 71.146 50.3992 72.2453 49.344 73.258C48.3128 74.2296 47.116 74.8978 45.7539 75.2628C44.0349 75.7234 42.6074 75.6366 41.4715 75.0025C40.3679 74.3596 39.622 73.2907 39.2338 71.7958C39.1072 71.3083 39.0293 70.8077 39 70.2942C38.8961 69.6268 38.8146 69.1794 38.7555 68.9519C38.6205 68.4319 38.3746 68.2197 38.0179 68.3153C37.5314 68.4456 37.0262 69.1719 36.5023 70.4942C36.0024 71.7752 35.5953 73.4138 35.281 75.4098C34.9668 77.4059 34.8238 79.4603 34.8521 81.5731C34.892 83.1962 34.7404 84.3491 34.3974 85.032C34.0783 85.6736 33.4161 86.1292 32.4107 86.3986ZM69.9075 64.4632C70.3291 64.3502 70.7041 64.4583 71.0324 64.7875C71.3931 65.1079 71.6621 65.6094 71.8393 66.2919C72.1769 67.5919 72.1304 68.6819 71.6998 69.562C70.8795 71.346 69.527 73.151 67.6423 74.9769C65.7899 76.7942 63.6151 78.0374 61.1177 78.7065C57.7123 79.619 54.8285 79.401 52.4663 78.0526C50.1042 76.7042 48.5054 74.4213 47.6699 71.2038C47.0876 68.9614 47.0178 66.7554 47.4604 64.5859C47.8946 62.3839 48.7911 60.4926 50.1498 58.9119C51.541 57.3225 53.2906 56.2454 55.3988 55.6805C57.2799 55.1765 58.9357 55.3411 60.3663 56.1744C61.7883 56.9752 62.7483 58.3344 63.2462 60.2518C63.8285 62.4943 63.5198 64.6453 62.3201 66.7048C61.1444 68.7231 58.7654 70.7162 55.183 72.6841C56.382 73.9619 58.1167 74.2965 60.387 73.6882C61.8465 73.2971 63.3698 72.3502 64.9569 70.8474C66.5679 69.3033 67.8394 67.5201 68.7712 65.4976C69.0422 64.9383 69.421 64.5935 69.9075 64.4632ZM55.8123 60.6795C54.6123 61.0011 53.7721 61.9736 53.2917 63.597C52.8437 65.2117 52.8772 67.0103 53.3919 68.9928L53.4173 69.0903C55.2127 68.1226 56.5436 67.036 57.41 65.8305C58.2764 64.6251 58.5535 63.4211 58.2413 62.2186C58.0809 61.6011 57.776 61.1614 57.3264 60.8995C56.9008 60.5964 56.3961 60.5231 55.8123 60.6795ZM89.0063 59.3457C89.4279 59.2327 89.8029 59.3408 90.1312 59.67C90.4919 59.9904 90.7609 60.4919 90.9381 61.1744C91.2757 62.4744 91.2292 63.5644 90.7986 64.4445C89.9783 66.2285 88.6258 68.0335 86.741 69.8594C84.8887 71.6767 82.7139 72.9199 80.2165 73.589C76.8111 74.5015 73.9272 74.2835 71.5651 72.9351C69.2029 71.5867 67.6041 69.3038 66.7687 66.0863C66.1864 63.8439 66.1166 61.6379 66.5592 59.4684C66.9934 57.2664 67.8899 55.3751 69.2486 53.7944C70.6398 52.205 72.3894 51.1279 74.4976 50.563C76.3787 50.059 78.0345 50.2236 79.465 51.0569C80.8871 51.8577 81.8471 53.2169 82.345 55.1343C82.9273 57.3768 82.6186 59.5278 81.4189 61.5873C80.2432 63.6056 77.8642 65.5987 74.2818 67.5666C75.4808 68.8444 77.2155 69.179 79.4858 68.5707C80.9453 68.1796 82.4686 67.2327 84.0557 65.7299C85.6667 64.1858 86.9382 62.4026 87.8699 60.3801C88.141 59.8208 88.5198 59.476 89.0063 59.3457ZM74.9111 55.562C73.711 55.8836 72.8708 56.8561 72.3905 58.4795C71.9425 60.0942 71.9759 61.8928 72.4907 63.8753L72.516 63.9728C74.3114 63.0051 75.6424 61.9185 76.5088 60.713C77.3752 59.5076 77.6523 58.3036 77.3401 57.1011C77.1797 56.4836 76.8748 56.0439 76.4252 55.782C75.9996 55.4789 75.4949 55.4056 74.9111 55.562ZM104.204 56.8378C104.625 56.7248 105 56.8329 105.329 57.1621C105.689 57.4825 105.958 57.984 106.135 58.6665C106.439 59.8365 106.425 60.9178 106.093 61.9105C105.548 63.5513 104.631 64.9616 103.341 66.1414C102.084 67.3124 100.434 68.1717 98.391 68.7192C95.2774 69.5535 92.6206 69.2747 90.4206 67.8828C88.2122 66.4584 86.6945 64.1538 85.8674 60.9688C85.2852 58.7264 85.2153 56.5204 85.658 54.3509C86.0922 52.1489 86.9887 50.2576 88.3474 48.6769C89.7385 47.0875 91.4882 46.0104 93.5963 45.4455C95.4775 44.9415 97.1333 45.1061 98.5638 45.9394C99.9859 46.7402 100.946 48.0994 101.444 50.0168C102.026 52.2593 101.717 54.4103 100.518 56.4698C99.342 58.4881 96.9467 60.4855 93.3319 62.4622C94.4985 63.7486 96.0062 64.1441 97.8548 63.6487C99.1846 63.2924 100.191 62.6926 100.874 61.8491C101.589 60.997 102.325 59.6876 103.08 57.921C103.343 57.3292 103.717 56.9681 104.204 56.8378ZM94.0098 50.4445C92.8098 50.7661 91.9696 51.7386 91.4892 53.362C91.0413 54.9767 91.0747 56.7753 91.5895 58.7578L91.6148 58.8553C93.4102 57.8876 94.7411 56.801 95.6076 55.5955C96.474 54.3901 96.7511 53.1861 96.4388 51.9836C96.2785 51.3661 95.9735 50.9264 95.5239 50.6645C95.0983 50.3614 94.5936 50.2881 94.0098 50.4445Z" fill="#472E50"/>
<path d="M10.1935 67.6523C8.96108 67.9825 7.91661 67.5672 7.06012 66.4062C6.23606 65.2366 5.45271 63.2218 4.71007 60.3619C3.61299 56.137 3.17077 51.9625 3.38342 47.8385C3.43059 46.8179 3.72365 46.0094 4.2626 45.4131C4.82555 44.7756 5.70704 44.296 6.90706 43.9745C7.55572 43.8007 8.03088 43.7603 8.33254 43.8532C8.6342 43.9462 8.84411 44.2202 8.96225 44.6752C9.09728 45.1952 9.15784 46.4303 9.14393 48.3807C9.15716 49.7675 9.19306 50.9745 9.25164 52.0017C9.31021 53.0288 9.46029 54.2747 9.70188 55.7395C10.0464 52.6577 10.6557 50.0612 11.5297 47.95C12.4038 45.8387 13.3762 44.2398 14.447 43.1534C15.5502 42.0583 16.637 41.3674 17.7073 41.0806C19.8154 40.5157 21.1438 41.2895 21.6923 43.402C21.802 43.8245 21.9219 44.8873 22.052 46.5905C22.1301 47.96 22.2113 48.8072 22.2957 49.1322C22.5911 50.2697 23.1442 50.7298 23.955 50.5125C24.8631 50.2692 25.845 49.2414 26.9008 47.429C27.2127 46.8936 27.5957 46.565 28.0498 46.4433C28.4714 46.3303 28.8463 46.4384 29.1746 46.7676C29.5269 47.0556 29.7833 47.5083 29.9436 48.1258C30.2559 49.3283 30.1763 50.3576 29.7048 51.2139C29.0414 52.3998 28.1821 53.499 27.1269 54.5117C26.0956 55.4833 24.8989 56.1515 23.5367 56.5165C21.8178 56.9771 20.3903 56.8904 19.2543 56.2562C18.1508 55.6134 17.4049 54.5445 17.0167 53.0495C16.8901 52.562 16.8122 52.0615 16.7829 51.5479C16.679 50.8805 16.5975 50.4331 16.5384 50.2056C16.4034 49.6856 16.1575 49.4734 15.8007 49.569C15.3142 49.6994 14.809 50.4257 14.2851 51.7479C13.7852 53.029 13.3782 54.6675 13.0639 56.6635C12.7497 58.6596 12.6067 60.714 12.635 62.8268C12.6748 64.4499 12.5233 65.6028 12.1802 66.2857C11.8612 66.9273 11.199 67.3829 10.1935 67.6523ZM34.8627 61.0422C32.8518 61.581 31.0565 61.2799 29.4767 60.139C27.897 58.9981 26.799 57.2414 26.183 54.8689C25.5079 52.269 25.4707 49.6545 26.0716 47.0255C26.664 44.364 27.768 42.0695 29.3835 40.1419C31.023 38.1731 32.9617 36.8889 35.1996 36.2892C35.9131 36.0981 36.4214 36.1183 36.7244 36.35C37.0514 36.5404 37.3888 36.9714 37.7366 37.643C38.3839 37.3305 39.0806 37.0743 39.8265 36.8744C41.4158 36.4486 42.3581 36.8044 42.6534 37.9419C42.8306 38.6244 43.0093 40.3145 43.1895 43.0123C43.4141 46.9496 43.7162 49.6495 44.096 51.112C44.2226 51.5995 44.4374 51.9591 44.7403 52.1907C45.0757 52.4137 45.4381 52.473 45.8273 52.3687C46.4435 52.2036 47.0882 51.6138 47.7613 50.5991C48.426 49.552 49.2723 47.9348 50.3001 45.7476C50.5711 45.1883 50.9499 44.8435 51.4364 44.7132C51.858 44.6002 52.233 44.7083 52.5613 45.0374C52.922 45.3579 53.191 45.8594 53.3682 46.5419C53.7058 47.8418 53.6593 48.9319 53.2287 49.812C52.3293 51.8258 51.2814 53.6013 50.0848 55.1385C48.8883 56.6757 47.5927 57.6312 46.1981 58.0049C45.1278 58.2917 44.0457 58.1992 42.9519 57.7276C41.8822 57.2147 40.9557 56.3854 40.1725 55.2396C39.1948 58.4215 37.4249 60.3557 34.8627 61.0422ZM35.3356 55.6493C36.0491 55.4581 36.6205 54.8531 37.0497 53.8343C37.479 52.8155 37.6581 51.5683 37.5871 50.0926L37.058 40.6404C35.7042 41.0379 34.5744 41.8968 33.6684 43.2172C32.7864 44.4963 32.2158 46.0396 31.9567 47.8471C31.6975 49.6546 31.8043 51.4683 32.2769 53.2882C32.5385 54.2957 32.9272 54.9911 33.4429 55.3743C33.9912 55.7488 34.622 55.8404 35.3356 55.6493ZM61.0581 55.1703C59.3716 55.6222 57.973 55.5798 56.8624 55.0431C55.7841 54.4978 55.1184 53.7376 54.8653 52.7626C54.6458 51.9177 54.7641 51.1039 55.22 50.3213C55.6758 49.5386 56.5038 48.9866 57.7038 48.665C58.1255 48.552 58.6246 48.4704 59.2013 48.4202C59.802 48.3288 60.2525 48.2602 60.5528 48.2145C60.301 47.3782 59.8996 46.6341 59.3487 45.9822C58.8303 45.3216 58.223 44.7196 57.5269 44.1762C56.8223 43.6002 56.1754 43.1131 55.5863 42.7148C55.0788 44.9016 54.4869 46.7635 53.8106 48.3004C53.1667 49.8286 52.4087 51.3178 51.5365 52.7682C51.1046 53.5096 50.5643 53.9672 49.9156 54.141C49.3967 54.2801 48.9287 54.2143 48.5115 53.9437C48.0859 53.6406 47.8014 53.2128 47.6579 52.6603C47.4891 52.0104 47.56 51.3483 47.8706 50.6741L48.3006 49.7247C49.5105 47.0367 50.3839 44.8561 50.9207 43.1828C51.2598 42.0839 51.5524 40.8063 51.7986 39.3499C52.0773 37.8848 52.412 35.9006 52.8027 33.3975C53.0476 31.8024 54.143 30.7441 56.089 30.2227C56.9972 29.9794 57.6507 29.8911 58.0497 29.958C58.4486 30.0249 58.6945 30.2371 58.7873 30.5946C58.838 30.7896 58.8533 31.1158 58.8333 31.573C58.8132 32.0303 58.7446 32.5005 58.6272 32.9839C58.3472 34.3103 58.3127 35.3797 58.5237 36.1922C58.6503 36.6797 58.9517 37.1725 59.4279 37.6706C59.9366 38.16 60.6616 38.7478 61.603 39.4341C62.9953 40.521 64.0775 41.4824 64.8496 42.3183C65.6457 43.1131 66.1915 44.0792 66.4868 45.2167C66.8413 46.5816 66.8545 47.9685 66.5265 49.3773C66.2225 50.7449 65.6 51.9545 64.659 53.0062C63.7179 54.0578 62.5176 54.7792 61.0581 55.1703Z" fill="#472E50"/>
</g>
<g clip-path="url(#clip2_608_203)">
<path d="M33.4107 84.3986C32.1782 84.7288 31.1337 84.3134 30.2772 83.1525C29.4532 81.9829 28.6698 79.9681 27.9272 77.1082C26.8301 72.8832 26.3879 68.7088 26.6006 64.5848C26.6477 63.5641 26.9408 62.7556 27.4797 62.1593C28.0427 61.5218 28.9242 61.0423 30.1242 60.7208C30.7729 60.547 31.248 60.5066 31.5497 60.5995C31.8513 60.6925 32.0612 60.9665 32.1794 61.4215C32.3144 61.9415 32.375 63.1766 32.3611 65.1269C32.3743 66.5138 32.4102 67.7208 32.4688 68.7479C32.5273 69.7751 32.6774 71.021 32.919 72.4857C33.2635 69.404 33.8728 66.8075 34.7469 64.6962C35.6209 62.585 36.5933 60.9861 37.6641 59.8997C38.7674 58.8046 39.8541 58.1137 40.9244 57.8269C43.0326 57.262 44.3609 58.0358 44.9094 60.1482C45.0192 60.5707 45.139 61.6336 45.2691 63.3368C45.3472 64.7063 45.4284 65.5535 45.5128 65.8785C45.8082 67.016 46.3613 67.4761 47.1721 67.2588C48.0802 67.0155 49.0622 65.9876 50.1179 64.1753C50.4298 63.6398 50.8128 63.3113 51.2669 63.1896C51.6885 63.0766 52.0635 63.1847 52.3918 63.5139C52.7441 63.8018 53.0004 64.2546 53.1607 64.8721C53.473 66.0745 53.3934 67.1039 52.9219 67.9602C52.2586 69.146 51.3992 70.2453 50.344 71.258C49.3128 72.2296 48.116 72.8978 46.7539 73.2628C45.0349 73.7234 43.6074 73.6366 42.4715 73.0025C41.3679 72.3596 40.622 71.2907 40.2338 69.7958C40.1072 69.3083 40.0293 68.8077 40 68.2942C39.8961 67.6268 39.8146 67.1794 39.7555 66.9519C39.6205 66.4319 39.3746 66.2197 39.0179 66.3153C38.5314 66.4456 38.0262 67.1719 37.5023 68.4942C37.0024 69.7752 36.5953 71.4138 36.281 73.4098C35.9668 75.4059 35.8238 77.4603 35.8521 79.5731C35.892 81.1962 35.7404 82.3491 35.3974 83.032C35.0783 83.6736 34.4161 84.1292 33.4107 84.3986ZM70.9075 62.4632C71.3291 62.3502 71.7041 62.4583 72.0324 62.7875C72.3931 63.1079 72.6621 63.6094 72.8393 64.2919C73.1769 65.5919 73.1304 66.6819 72.6998 67.562C71.8795 69.346 70.527 71.151 68.6423 72.9769C66.7899 74.7942 64.6151 76.0374 62.1177 76.7065C58.7123 77.619 55.8285 77.401 53.4663 76.0526C51.1042 74.7042 49.5054 72.4213 48.6699 69.2038C48.0876 66.9614 48.0178 64.7554 48.4604 62.5859C48.8946 60.3839 49.7911 58.4926 51.1498 56.9119C52.541 55.3225 54.2906 54.2454 56.3988 53.6805C58.2799 53.1765 59.9357 53.3411 61.3663 54.1744C62.7883 54.9752 63.7483 56.3344 64.2462 58.2518C64.8285 60.4943 64.5198 62.6453 63.3201 64.7048C62.1444 66.7231 59.7654 68.7162 56.183 70.6841C57.382 71.9619 59.1167 72.2965 61.387 71.6882C62.8465 71.2971 64.3698 70.3502 65.9569 68.8474C67.5679 67.3033 68.8394 65.5201 69.7712 63.4976C70.0422 62.9383 70.421 62.5935 70.9075 62.4632ZM56.8123 58.6795C55.6123 59.0011 54.7721 59.9736 54.2917 61.597C53.8437 63.2117 53.8772 65.0103 54.3919 66.9928L54.4173 67.0903C56.2127 66.1226 57.5436 65.036 58.41 63.8305C59.2764 62.6251 59.5535 61.4211 59.2413 60.2186C59.0809 59.6011 58.776 59.1614 58.3264 58.8995C57.9008 58.5964 57.3961 58.5231 56.8123 58.6795ZM90.0063 57.3457C90.4279 57.2327 90.8029 57.3408 91.1312 57.67C91.4919 57.9904 91.7609 58.4919 91.9381 59.1744C92.2757 60.4744 92.2292 61.5644 91.7986 62.4445C90.9783 64.2285 89.6258 66.0335 87.741 67.8594C85.8887 69.6767 83.7139 70.9199 81.2165 71.589C77.8111 72.5015 74.9272 72.2835 72.5651 70.9351C70.2029 69.5867 68.6041 67.3038 67.7687 64.0863C67.1864 61.8439 67.1166 59.6379 67.5592 57.4684C67.9934 55.2664 68.8899 53.3751 70.2486 51.7944C71.6398 50.205 73.3894 49.1279 75.4976 48.563C77.3787 48.059 79.0345 48.2236 80.465 49.0569C81.8871 49.8577 82.8471 51.2169 83.345 53.1343C83.9273 55.3768 83.6186 57.5278 82.4189 59.5873C81.2432 61.6056 78.8642 63.5987 75.2818 65.5666C76.4808 66.8444 78.2155 67.179 80.4858 66.5707C81.9453 66.1796 83.4686 65.2327 85.0557 63.7299C86.6667 62.1858 87.9382 60.4026 88.8699 58.3801C89.141 57.8208 89.5198 57.476 90.0063 57.3457ZM75.9111 53.562C74.711 53.8836 73.8708 54.8561 73.3905 56.4795C72.9425 58.0942 72.9759 59.8928 73.4907 61.8753L73.516 61.9728C75.3114 61.0051 76.6424 59.9185 77.5088 58.713C78.3752 57.5076 78.6523 56.3036 78.3401 55.1011C78.1797 54.4836 77.8748 54.0439 77.4252 53.782C76.9996 53.4789 76.4949 53.4056 75.9111 53.562ZM105.204 54.8378C105.625 54.7248 106 54.8329 106.329 55.1621C106.689 55.4825 106.958 55.984 107.135 56.6665C107.439 57.8365 107.425 58.9178 107.093 59.9105C106.548 61.5513 105.631 62.9616 104.341 64.1414C103.084 65.3124 101.434 66.1717 99.391 66.7192C96.2774 67.5535 93.6206 67.2747 91.4206 65.8828C89.2122 64.4584 87.6945 62.1538 86.8674 58.9688C86.2852 56.7264 86.2153 54.5204 86.658 52.3509C87.0922 50.1489 87.9887 48.2576 89.3474 46.6769C90.7385 45.0875 92.4882 44.0104 94.5963 43.4455C96.4775 42.9415 98.1333 43.1061 99.5638 43.9394C100.986 44.7402 101.946 46.0994 102.444 48.0168C103.026 50.2593 102.717 52.4103 101.518 54.4698C100.342 56.4881 97.9467 58.4855 94.3319 60.4622C95.4985 61.7486 97.0062 62.1441 98.8548 61.6487C100.185 61.2924 101.191 60.6926 101.874 59.8491C102.589 58.997 103.325 57.6876 104.08 55.921C104.343 55.3292 104.717 54.9681 105.204 54.8378ZM95.0098 48.4445C93.8098 48.7661 92.9696 49.7386 92.4892 51.362C92.0413 52.9767 92.0747 54.7753 92.5895 56.7578L92.6148 56.8553C94.4102 55.8876 95.7411 54.801 96.6076 53.5955C97.474 52.3901 97.7511 51.1861 97.4388 49.9836C97.2785 49.3661 96.9735 48.9264 96.5239 48.6645C96.0983 48.3614 95.5936 48.2881 95.0098 48.4445Z" fill="#884D9F"/>
<path d="M11.1935 65.6523C9.96108 65.9825 8.91661 65.5672 8.06012 64.4062C7.23606 63.2366 6.45271 61.2218 5.71007 58.3619C4.61299 54.137 4.17077 49.9625 4.38342 45.8385C4.43059 44.8179 4.72365 44.0094 5.2626 43.4131C5.82555 42.7756 6.70704 42.296 7.90706 41.9745C8.55572 41.8007 9.03088 41.7603 9.33254 41.8532C9.6342 41.9462 9.84411 42.2202 9.96225 42.6752C10.0973 43.1952 10.1578 44.4303 10.1439 46.3807C10.1572 47.7675 10.1931 48.9745 10.2516 50.0017C10.3102 51.0288 10.4603 52.2747 10.7019 53.7395C11.0464 50.6577 11.6557 48.0612 12.5297 45.95C13.4038 43.8387 14.3762 42.2398 15.447 41.1534C16.5502 40.0583 17.637 39.3674 18.7073 39.0806C20.8154 38.5157 22.1438 39.2895 22.6923 41.402C22.802 41.8245 22.9219 42.8873 23.052 44.5905C23.1301 45.96 23.2113 46.8072 23.2957 47.1322C23.5911 48.2697 24.1442 48.7298 24.955 48.5125C25.8631 48.2692 26.845 47.2414 27.9008 45.429C28.2127 44.8936 28.5957 44.565 29.0498 44.4433C29.4714 44.3303 29.8463 44.4384 30.1746 44.7676C30.5269 45.0556 30.7833 45.5083 30.9436 46.1258C31.2559 47.3283 31.1763 48.3576 30.7048 49.2139C30.0414 50.3998 29.1821 51.499 28.1269 52.5117C27.0956 53.4833 25.8989 54.1515 24.5367 54.5165C22.8178 54.9771 21.3903 54.8904 20.2543 54.2562C19.1508 53.6134 18.4049 52.5445 18.0167 51.0495C17.8901 50.562 17.8122 50.0615 17.7829 49.5479C17.679 48.8805 17.5975 48.4331 17.5384 48.2056C17.4034 47.6856 17.1575 47.4734 16.8007 47.569C16.3142 47.6994 15.809 48.4257 15.2851 49.7479C14.7852 51.029 14.3782 52.6675 14.0639 54.6635C13.7497 56.6596 13.6067 58.714 13.635 60.8268C13.6748 62.4499 13.5233 63.6028 13.1802 64.2857C12.8612 64.9273 12.199 65.3829 11.1935 65.6523ZM35.8627 59.0422C33.8518 59.581 32.0565 59.2799 30.4767 58.139C28.897 56.9981 27.799 55.2414 27.183 52.8689C26.5079 50.269 26.4707 47.6545 27.0716 45.0255C27.664 42.364 28.768 40.0695 30.3835 38.1419C32.023 36.1731 33.9617 34.8889 36.1996 34.2892C36.9131 34.0981 37.4214 34.1183 37.7244 34.35C38.0514 34.5404 38.3888 34.9714 38.7366 35.643C39.3839 35.3305 40.0806 35.0743 40.8265 34.8744C42.4158 34.4486 43.3581 34.8044 43.6534 35.9419C43.8306 36.6244 44.0093 38.3145 44.1895 41.0123C44.4141 44.9496 44.7162 47.6495 45.096 49.112C45.2226 49.5995 45.4374 49.9591 45.7403 50.1907C46.0757 50.4137 46.4381 50.473 46.8273 50.3687C47.4435 50.2036 48.0882 49.6138 48.7613 48.5991C49.426 47.552 50.2723 45.9348 51.3001 43.7476C51.5711 43.1883 51.9499 42.8435 52.4364 42.7132C52.858 42.6002 53.233 42.7083 53.5613 43.0374C53.922 43.3579 54.191 43.8594 54.3682 44.5419C54.7058 45.8418 54.6593 46.9319 54.2287 47.812C53.3293 49.8258 52.2814 51.6013 51.0848 53.1385C49.8883 54.6757 48.5927 55.6312 47.1981 56.0049C46.1278 56.2917 45.0457 56.1992 43.9519 55.7276C42.8822 55.2147 41.9557 54.3854 41.1725 53.2396C40.1948 56.4215 38.4249 58.3557 35.8627 59.0422ZM36.3356 53.6493C37.0491 53.4581 37.6205 52.8531 38.0497 51.8343C38.479 50.8155 38.6581 49.5683 38.5871 48.0926L38.058 38.6404C36.7042 39.0379 35.5744 39.8968 34.6684 41.2172C33.7864 42.4963 33.2158 44.0396 32.9567 45.8471C32.6975 47.6546 32.8043 49.4683 33.2769 51.2882C33.5385 52.2957 33.9272 52.9911 34.4429 53.3743C34.9912 53.7488 35.622 53.8404 36.3356 53.6493ZM62.0581 53.1703C60.3716 53.6222 58.973 53.5798 57.8624 53.0431C56.7841 52.4978 56.1184 51.7376 55.8653 50.7626C55.6458 49.9177 55.7641 49.1039 56.22 48.3213C56.6758 47.5386 57.5038 46.9866 58.7038 46.665C59.1255 46.552 59.6246 46.4704 60.2013 46.4202C60.802 46.3288 61.2525 46.2602 61.5528 46.2145C61.301 45.3782 60.8996 44.6341 60.3487 43.9822C59.8303 43.3216 59.223 42.7196 58.5269 42.1762C57.8223 41.6002 57.1754 41.1131 56.5863 40.7148C56.0788 42.9016 55.4869 44.7635 54.8106 46.3004C54.1667 47.8286 53.4087 49.3178 52.5365 50.7682C52.1046 51.5096 51.5643 51.9672 50.9156 52.141C50.3967 52.2801 49.9287 52.2143 49.5115 51.9437C49.0859 51.6406 48.8014 51.2128 48.6579 50.6603C48.4891 50.0104 48.56 49.3483 48.8706 48.6741L49.3006 47.7247C50.5105 45.0367 51.3839 42.8561 51.9207 41.1828C52.2598 40.0839 52.5524 38.8063 52.7986 37.3499C53.0773 35.8848 53.412 33.9006 53.8027 31.3975C54.0476 29.8024 55.143 28.7441 57.089 28.2227C57.9972 27.9794 58.6507 27.8911 59.0497 27.958C59.4486 28.0249 59.6945 28.2371 59.7873 28.5946C59.838 28.7896 59.8533 29.1158 59.8333 29.573C59.8132 30.0303 59.7446 30.5005 59.6272 30.9839C59.3472 32.3103 59.3127 33.3797 59.5237 34.1922C59.6503 34.6797 59.9517 35.1725 60.4279 35.6706C60.9366 36.16 61.6616 36.7478 62.603 37.4341C63.9953 38.521 65.0775 39.4824 65.8496 40.3183C66.6457 41.1131 67.1915 42.0792 67.4868 43.2167C67.8413 44.5816 67.8545 45.9685 67.5265 47.3773C67.2225 48.7449 66.6 49.9545 65.659 51.0062C64.7179 52.0578 63.5176 52.7792 62.0581 53.1703Z" fill="#884D9F"/>
</g>
<path d="M34.54 81.7034C33.3075 82.0336 32.2631 81.6183 31.4066 80.4573C30.5825 79.2877 29.7992 77.2729 29.0565 74.413C27.9595 70.1881 27.5172 66.0136 27.7299 61.8896C27.7771 60.8689 28.0701 60.0604 28.6091 59.4641C29.172 58.8267 30.0535 58.3471 31.2535 58.0256C31.9022 57.8518 32.3773 57.8114 32.679 57.9043C32.9807 57.9973 33.1906 58.2713 33.3087 58.7263C33.4437 59.2463 33.5043 60.4814 33.4904 62.4318C33.5036 63.8186 33.5395 65.0256 33.5981 66.0528C33.6567 67.0799 33.8068 68.3258 34.0483 69.7905C34.3929 66.7088 35.0022 64.1123 35.8762 62.001C36.7503 59.8898 37.7227 58.2909 38.7935 57.2045C39.8967 56.1094 40.9834 55.4185 42.0537 55.1317C44.1619 54.5668 45.4902 55.3406 46.0388 57.4531C46.1485 57.8755 46.2684 58.9384 46.3984 60.6416C46.4765 62.0111 46.5578 62.8583 46.6422 63.1833C46.9375 64.3208 47.4906 64.7809 48.3014 64.5636C49.2096 64.3203 50.1915 63.2925 51.2472 61.4801C51.5592 60.9446 51.9422 60.6161 52.3962 60.4944C52.8179 60.3814 53.1928 60.4895 53.5211 60.8187C53.8734 61.1067 54.1297 61.5594 54.2901 62.1769C54.6023 63.3793 54.5227 64.4087 54.0513 65.265C53.3879 66.4508 52.5286 67.5501 51.4733 68.5628C50.4421 69.5344 49.2454 70.2026 47.8832 70.5676C46.1642 71.0282 44.7368 70.9414 43.6008 70.3073C42.4972 69.6645 41.7514 68.5955 41.3632 67.1006C41.2366 66.6131 41.1586 66.1126 41.1294 65.599C41.0254 64.9316 40.9439 64.4842 40.8849 64.2567C40.7498 63.7367 40.504 63.5245 40.1472 63.6201C39.6607 63.7505 39.1555 64.4768 38.6316 65.799C38.1317 67.08 37.7246 68.7186 37.4104 70.7146C37.0961 72.7107 36.9532 74.7651 36.9814 76.8779C37.0213 78.501 36.8697 79.6539 36.5267 80.3368C36.2077 80.9784 35.5454 81.434 34.54 81.7034ZM72.0368 59.768C72.4585 59.655 72.8334 59.7631 73.1617 60.0923C73.5225 60.4127 73.7914 60.9142 73.9687 61.5967C74.3062 62.8967 74.2597 63.9867 73.8291 64.8668C73.0089 66.6508 71.6564 68.4558 69.7716 70.2817C67.9193 72.099 65.7444 73.3422 63.2471 74.0113C59.8416 74.9238 56.9578 74.7059 54.5957 73.3574C52.2335 72.009 50.6347 69.7261 49.7992 66.5086C49.2169 64.2662 49.1471 62.0602 49.5898 59.8907C50.024 57.6887 50.9204 55.7974 52.2792 54.2167C53.6703 52.6273 55.42 51.5502 57.5281 50.9853C59.4092 50.4813 61.0651 50.6459 62.4956 51.4792C63.9177 52.2801 64.8777 53.6392 65.3756 55.5567C65.9579 57.7991 65.6492 59.9501 64.4495 62.0096C63.2738 64.0279 60.8947 66.021 57.3124 67.989C58.5114 69.2667 60.2461 69.6014 62.5164 68.993C63.9759 68.602 65.4991 67.655 67.0862 66.1522C68.6973 64.6081 69.9687 62.8249 70.9005 60.8024C71.1716 60.2432 71.5503 59.8983 72.0368 59.768ZM57.9416 55.9843C56.7416 56.3059 55.9014 57.2784 55.421 58.9018C54.9731 60.5165 55.0065 62.3151 55.5213 64.2976L55.5466 64.3951C57.342 63.4274 58.6729 62.3408 59.5393 61.1353C60.4058 59.9299 60.6829 58.7259 60.3706 57.5234C60.2103 56.9059 59.9053 56.4662 59.4557 56.2043C59.0301 55.9012 58.5254 55.8279 57.9416 55.9843ZM91.1356 54.6505C91.5572 54.5375 91.9322 54.6456 92.2605 54.9748C92.6212 55.2952 92.8902 55.7967 93.0674 56.4792C93.405 57.7792 93.3585 58.8692 92.9279 59.7493C92.1077 61.5333 90.7551 63.3383 88.8704 65.1642C87.018 66.9815 84.8432 68.2247 82.3459 68.8938C78.9404 69.8063 76.0566 69.5884 73.6944 68.2399C71.3323 66.8915 69.7335 64.6086 68.898 61.3911C68.3157 59.1487 68.2459 56.9427 68.6885 54.7732C69.1228 52.5712 70.0192 50.6799 71.3779 49.0992C72.7691 47.5098 74.5187 46.4327 76.6269 45.8678C78.508 45.3638 80.1638 45.5284 81.5944 46.3617C83.0164 47.1625 83.9764 48.5217 84.4744 50.4392C85.0566 52.6816 84.7479 54.8326 83.5482 56.8921C82.3725 58.9104 79.9935 60.9035 76.4111 62.8715C77.6102 64.1492 79.3448 64.4839 81.6151 63.8755C83.0746 63.4845 84.5979 62.5375 86.185 61.0347C87.7961 59.4906 89.0675 57.7074 89.9993 55.6849C90.2703 55.1257 90.6491 54.7808 91.1356 54.6505ZM77.0404 50.8668C75.8404 51.1884 75.0002 52.1609 74.5198 53.7843C74.0718 55.399 74.1053 57.1976 74.62 59.1801L74.6454 59.2776C76.4408 58.3099 77.7717 57.2233 78.6381 56.0178C79.5045 54.8124 79.7816 53.6084 79.4694 52.4059C79.3091 51.7884 79.0041 51.3487 78.5545 51.0868C78.1289 50.7837 77.6242 50.7104 77.0404 50.8668ZM106.333 52.1426C106.755 52.0296 107.13 52.1377 107.458 52.4669C107.819 52.7873 108.088 53.2888 108.265 53.9713C108.569 55.1413 108.555 56.2226 108.223 57.2153C107.677 58.8562 106.76 60.2664 105.471 61.4462C104.214 62.6172 102.564 63.4765 100.52 64.024C97.4067 64.8583 94.7499 64.5795 92.55 63.1876C90.3415 61.7632 88.8238 59.4586 87.9968 56.2736C87.4145 54.0312 87.3447 51.8252 87.7873 49.6557C88.2215 47.4537 89.118 45.5624 90.4767 43.9817C91.8679 42.3923 93.6175 41.3152 95.7257 40.7503C97.6068 40.2463 99.2626 40.4109 100.693 41.2442C102.115 42.045 103.075 43.4042 103.573 45.3216C104.155 47.5641 103.847 49.7151 102.647 51.7746C101.471 53.7929 99.0761 55.7903 95.4613 57.767C96.6278 59.0534 98.1355 59.4489 99.9842 58.9536C101.314 58.5973 102.32 57.9974 103.003 57.1539C103.719 56.3018 104.454 54.9924 105.209 53.2258C105.472 52.634 105.846 52.2729 106.333 52.1426ZM96.1392 45.7493C94.9391 46.0709 94.0989 47.0434 93.6186 48.6668C93.1706 50.2815 93.204 52.0801 93.7188 54.0626L93.7441 54.1601C95.5395 53.1924 96.8705 52.1058 97.7369 50.9003C98.6033 49.6949 98.8804 48.4909 98.5682 47.2884C98.4078 46.6709 98.1029 46.2312 97.6533 45.9693C97.2277 45.6662 96.723 45.5929 96.1392 45.7493Z" fill="white"/>
<path d="M12.3229 62.9571C11.0904 63.2873 10.0459 62.872 9.18945 61.711C8.36539 60.5414 7.58204 58.5266 6.8394 55.6667C5.74232 51.4418 5.30011 47.2673 5.51276 43.1434C5.55992 42.1227 5.85298 41.3142 6.39194 40.7179C6.95488 40.0804 7.83637 39.6009 9.03639 39.2793C9.68505 39.1055 10.1602 39.0651 10.4619 39.1581C10.7635 39.251 10.9734 39.525 11.0916 39.98C11.2266 40.5 11.2872 41.7352 11.2733 43.6855C11.2865 45.0724 11.3224 46.2794 11.381 47.3065C11.4395 48.3336 11.5896 49.5795 11.8312 51.0443C12.1757 47.9625 12.785 45.366 13.6591 43.2548C14.5331 41.1435 15.5055 39.5446 16.5763 38.4582C17.6796 37.3631 18.7663 36.6722 19.8366 36.3854C21.9448 35.8205 23.2731 36.5943 23.8216 38.7068C23.9314 39.1293 24.0512 40.1921 24.1813 41.8953C24.2594 43.2648 24.3406 44.112 24.425 44.437C24.7204 45.5745 25.2735 46.0346 26.0843 45.8174C26.9924 45.574 27.9744 44.5462 29.0301 42.7338C29.342 42.1984 29.725 41.8698 30.1791 41.7481C30.6007 41.6352 30.9757 41.7432 31.304 42.0724C31.6563 42.3604 31.9126 42.8131 32.0729 43.4306C32.3852 44.6331 32.3056 45.6625 31.8341 46.5188C31.1708 47.7046 30.3114 48.8038 29.2562 49.8166C28.225 50.7881 27.0282 51.4564 25.6661 51.8214C23.9471 52.2819 22.5196 52.1952 21.3837 51.561C20.2801 50.9182 19.5342 49.8493 19.146 48.3543C19.0194 47.8668 18.9415 47.3663 18.9122 46.8527C18.8083 46.1853 18.7268 45.7379 18.6677 45.5104C18.5327 44.9904 18.2868 44.7782 17.9301 44.8738C17.4436 45.0042 16.9384 45.7305 16.4145 47.0527C15.9146 48.3338 15.5075 49.9723 15.1932 51.9683C14.879 53.9644 14.736 56.0188 14.7643 58.1316C14.8042 59.7547 14.6526 60.9077 14.3096 61.5905C13.9905 62.2322 13.3283 62.6877 12.3229 62.9571ZM36.992 56.347C34.9812 56.8858 33.1859 56.5848 31.6061 55.4438C30.0263 54.3029 28.9284 52.5462 28.3123 50.1738C27.6372 47.5738 27.6001 44.9593 28.2009 42.3303C28.7933 39.6688 29.8973 37.3743 31.5128 35.4467C33.1524 33.4779 35.0911 32.1937 37.329 31.5941C38.0425 31.4029 38.5507 31.4231 38.8537 31.6548C39.1807 31.8452 39.5181 32.2762 39.8659 32.9478C40.5133 32.6353 41.2099 32.3791 41.9559 32.1792C43.5451 31.7534 44.4874 32.1092 44.7828 33.2467C44.96 33.9292 45.1387 35.6193 45.3189 38.3171C45.5434 42.2544 45.8456 44.9543 46.2253 46.4168C46.3519 46.9043 46.5667 47.2639 46.8697 47.4955C47.2051 47.7185 47.5674 47.7778 47.9566 47.6736C48.5728 47.5084 49.2175 46.9186 49.8907 45.9039C50.5554 44.8568 51.4016 43.2396 52.4294 41.0524C52.7004 40.4931 53.0792 40.1483 53.5657 40.018C53.9873 39.905 54.3623 40.0131 54.6906 40.3422C55.0513 40.6627 55.3203 41.1642 55.4975 41.8467C55.8351 43.1467 55.7886 44.2367 55.358 45.1168C54.4587 47.1306 53.4107 48.9061 52.2142 50.4433C51.0176 51.9806 49.722 52.936 48.3274 53.3097C47.2571 53.5965 46.1751 53.5041 45.0813 53.0324C44.0115 52.5196 43.085 51.6902 42.3018 50.5444C41.3242 53.7263 39.5542 55.6605 36.992 56.347ZM37.4649 50.9541C38.1784 50.7629 38.7498 50.1579 39.1791 49.1391C39.6083 48.1203 39.7874 46.8731 39.7165 45.3974L39.1873 35.9452C37.8336 36.3427 36.7037 37.2016 35.7977 38.522C34.9157 39.8011 34.3452 41.3444 34.086 43.1519C33.8269 44.9594 33.9336 46.7731 34.4062 48.593C34.6678 49.6005 35.0565 50.2959 35.5723 50.6791C36.1205 51.0536 36.7514 51.1453 37.4649 50.9541ZM63.1875 50.4751C61.5009 50.927 60.1024 50.8846 58.9917 50.3479C57.9135 49.8026 57.2478 49.0424 56.9946 48.0674C56.7752 47.2225 56.8934 46.4087 57.3493 45.6261C57.8052 44.8435 58.6331 44.2914 59.8332 43.9698C60.2548 43.8569 60.7539 43.7752 61.3306 43.725C61.9313 43.6336 62.3818 43.565 62.6821 43.5193C62.4303 42.683 62.0289 41.9389 61.4781 41.287C60.9596 40.6264 60.3523 40.0244 59.6562 39.481C58.9516 38.905 58.3048 38.4179 57.7157 38.0196C57.2082 40.2065 56.6163 42.0683 55.9399 43.6052C55.2961 45.1334 54.538 46.6227 53.6658 48.073C53.2339 48.8144 52.6936 49.272 52.045 49.4458C51.5261 49.5849 51.058 49.5191 50.6408 49.2485C50.2152 48.9454 49.9307 48.5176 49.7873 47.9651C49.6185 47.3152 49.6894 46.6531 50 45.9789L50.4299 45.0295C51.6398 42.3416 52.5132 40.1609 53.05 38.4876C53.3891 37.3887 53.6817 36.1111 53.928 34.6547C54.2066 33.1896 54.5413 31.2054 54.932 28.7023C55.1769 27.1072 56.2724 26.0489 58.2184 25.5275C59.1265 25.2842 59.78 25.1959 60.179 25.2628C60.5779 25.3298 60.8238 25.5419 60.9167 25.8994C60.9673 26.0944 60.9826 26.4206 60.9626 26.8778C60.9426 27.3351 60.8739 27.8054 60.7566 28.2887C60.4766 29.6151 60.4421 30.6845 60.653 31.497C60.7796 31.9845 61.081 32.4773 61.5573 32.9754C62.0659 33.4648 62.791 34.0526 63.7324 34.7389C65.1247 35.8258 66.2069 36.7872 66.979 37.6231C67.7751 38.4179 68.3208 39.384 68.6162 40.5215C68.9706 41.8864 68.9838 43.2733 68.6559 44.6821C68.3519 46.0497 67.7293 47.2593 66.7883 48.311C65.8472 49.3626 64.647 50.084 63.1875 50.4751Z" fill="white"/>
<path d="M77.9526 31.7783C77.9526 31.7783 78.3949 34.3028 79.4756 35.3835C80.5564 36.4643 83.0809 36.9065 83.0809 36.9065C83.0809 36.9065 80.5564 37.3488 79.4756 38.4295C78.3949 39.5103 77.9526 42.0348 77.9526 42.0348C77.9526 42.0348 77.5103 39.5103 76.4296 38.4295C75.3488 37.3488 72.8243 36.9065 72.8243 36.9065C72.8243 36.9065 75.3488 36.4643 76.4296 35.3835C77.5103 34.3028 77.9526 31.7783 77.9526 31.7783Z" fill="#A082AB"/>
<path d="M69.6192 26.65C69.6192 26.65 69.8956 28.2278 70.5711 28.9032C71.2465 29.5787 72.8243 29.8551 72.8243 29.8551C72.8243 29.8551 71.2465 30.1315 70.5711 30.807C69.8956 31.4825 69.6192 33.0603 69.6192 33.0603C69.6192 33.0603 69.3428 31.4825 68.6673 30.807C67.9918 30.1315 66.414 29.8551 66.414 29.8551C66.414 29.8551 67.9918 29.5787 68.6673 28.9032C69.3428 28.2278 69.6192 26.65 69.6192 26.65Z" fill="#A082AB"/>
<path d="M88.8502 34.3423C88.8502 34.3423 89.1266 35.9202 89.8021 36.5956C90.4776 37.2711 92.0554 37.5475 92.0554 37.5475C92.0554 37.5475 90.4776 37.8239 89.8021 38.4994C89.1266 39.1749 88.8502 40.7527 88.8502 40.7527C88.8502 40.7527 88.5738 39.1749 87.8983 38.4994C87.2229 37.8239 85.6451 37.5475 85.6451 37.5475C85.6451 37.5475 87.2229 37.2711 87.8983 36.5956C88.5738 35.9202 88.8502 34.3423 88.8502 34.3423Z" fill="#A082AB"/>
<path d="M14.9402 80.2816C14.9402 80.2816 14.9431 77.7187 14.0664 76.4667C13.1897 75.2147 10.7804 74.3407 10.7804 74.3407C10.7804 74.3407 13.3433 74.3436 14.5953 73.4669C15.8473 72.5902 16.7213 70.1809 16.7213 70.1809C16.7213 70.1809 16.7184 72.7438 17.5951 73.9958C18.4718 75.2478 20.8811 76.1218 20.8811 76.1218C20.8811 76.1218 18.3182 76.1189 17.0662 76.9956C15.8142 77.8723 14.9402 80.2816 14.9402 80.2816Z" fill="#A082AB"/>
<path d="M22.2566 86.7791C22.2566 86.7791 22.2583 85.1772 21.7104 84.3947C21.1625 83.6122 19.6567 83.066 19.6567 83.066C19.6567 83.066 21.2585 83.0678 22.041 82.5199C22.8235 81.972 23.3697 80.4661 23.3697 80.4661C23.3697 80.4661 23.368 82.068 23.9159 82.8505C24.4638 83.633 25.9696 84.1792 25.9696 84.1792C25.9696 84.1792 24.3678 84.1774 23.5853 84.7253C22.8028 85.2732 22.2566 86.7791 22.2566 86.7791Z" fill="#A082AB"/>
<path d="M4.65346 75.8641C4.65346 75.8641 4.65523 74.2623 4.10732 73.4798C3.5594 72.6973 2.05356 72.1511 2.05356 72.1511C2.05356 72.1511 3.6554 72.1529 4.4379 71.605C5.2204 71.057 5.76661 69.5512 5.76661 69.5512C5.76661 69.5512 5.76484 71.153 6.31275 71.9355C6.86067 72.718 8.36651 73.2642 8.36651 73.2642C8.36651 73.2642 6.76467 73.2625 5.98217 73.8104C5.19966 74.3583 4.65346 75.8641 4.65346 75.8641Z" fill="#A082AB"/>
</g>
<defs>
<clipPath id="clip0_608_203">
<rect width="111" height="80" fill="white" transform="translate(0.5 15)"/>
</clipPath>
<clipPath id="clip1_608_203">
<rect width="119.617" height="92.1411" fill="white" transform="matrix(0.965926 -0.258819 0.251334 0.967901 -15.8 25.7)"/>
</clipPath>
<clipPath id="clip2_608_203">
<rect width="119.617" height="92.1411" fill="white" transform="matrix(0.965926 -0.258819 0.251334 0.967901 -14.8 23.7)"/>
</clipPath>
</defs>
</svg>
