<svg width="112" height="110" viewBox="0 0 112 110" fill="none" xmlns="http://www.w3.org/2000/svg">
<g clip-path="url(#clip0_616_122)">
<g clip-path="url(#clip1_616_122)">
<text transform="matrix(0.965926 -0.258819 0.251334 0.967901 14.7454 43.2147)" fill="#472E50" xml:space="preserve" style="white-space: pre" font-family="Pacifico" font-size="50.3658" letter-spacing="0em"><tspan x="0" y="46.5884">reee</tspan></text>
<text transform="matrix(0.965926 -0.258819 0.251334 0.967901 -7.47174 22.4684)" fill="#472E50" xml:space="preserve" style="white-space: pre" font-family="Pacifico" font-size="50.3658" letter-spacing="0em"><tspan x="0" y="46.5884">ras</tspan></text>
</g>
<g clip-path="url(#clip2_616_122)">
<text transform="matrix(0.965926 -0.258819 0.251334 0.967901 15.7454 41.2147)" fill="#884D9F" xml:space="preserve" style="white-space: pre" font-family="Pacifico" font-size="50.3658" letter-spacing="0em"><tspan x="0" y="46.5884">reee</tspan></text>
<text transform="matrix(0.965926 -0.258819 0.251334 0.967901 -6.47174 20.4684)" fill="#884D9F" xml:space="preserve" style="white-space: pre" font-family="Pacifico" font-size="50.3658" letter-spacing="0em"><tspan x="0" y="46.5884">ras</tspan></text>
</g>
<text transform="matrix(0.965926 -0.258819 0.251334 0.967901 16.8747 38.5195)" fill="white" xml:space="preserve" style="white-space: pre" font-family="Pacifico" font-size="50.3658" letter-spacing="0em"><tspan x="0" y="46.5884">reee</tspan></text>
<text transform="matrix(0.965926 -0.258819 0.251334 0.967901 -5.34241 17.7733)" fill="white" xml:space="preserve" style="white-space: pre" font-family="Pacifico" font-size="50.3658" letter-spacing="0em"><tspan x="0" y="46.5884">ras</tspan></text>
<path d="M77.9526 30.7783C77.9526 30.7783 78.3949 33.3028 79.4756 34.3835C80.5564 35.4643 83.0809 35.9065 83.0809 35.9065C83.0809 35.9065 80.5564 36.3488 79.4756 37.4295C78.3949 38.5103 77.9526 41.0348 77.9526 41.0348C77.9526 41.0348 77.5103 38.5103 76.4296 37.4295C75.3488 36.3488 72.8243 35.9065 72.8243 35.9065C72.8243 35.9065 75.3488 35.4643 76.4296 34.3835C77.5103 33.3028 77.9526 30.7783 77.9526 30.7783Z" fill="#AF80C1"/>
<path d="M69.6192 25.65C69.6192 25.65 69.8956 27.2278 70.5711 27.9032C71.2465 28.5787 72.8243 28.8551 72.8243 28.8551C72.8243 28.8551 71.2465 29.1315 70.5711 29.807C69.8956 30.4825 69.6192 32.0603 69.6192 32.0603C69.6192 32.0603 69.3428 30.4825 68.6673 29.807C67.9918 29.1315 66.414 28.8551 66.414 28.8551C66.414 28.8551 67.9918 28.5787 68.6673 27.9032C69.3428 27.2278 69.6192 25.65 69.6192 25.65Z" fill="#9266A3"/>
<path d="M88.8502 33.3423C88.8502 33.3423 89.1266 34.9202 89.8021 35.5956C90.4776 36.2711 92.0554 36.5475 92.0554 36.5475C92.0554 36.5475 90.4776 36.8239 89.8021 37.4994C89.1266 38.1749 88.8502 39.7527 88.8502 39.7527C88.8502 39.7527 88.5738 38.1749 87.8983 37.4994C87.2229 36.8239 85.6451 36.5475 85.6451 36.5475C85.6451 36.5475 87.2229 36.2711 87.8983 35.5956C88.5738 34.9202 88.8502 33.3423 88.8502 33.3423Z" fill="#9266A3"/>
<path d="M13.9402 80.2816C13.9402 80.2816 13.9431 77.7187 13.0664 76.4667C12.1897 75.2147 9.7804 74.3407 9.7804 74.3407C9.7804 74.3407 12.3433 74.3436 13.5953 73.4669C14.8473 72.5902 15.7213 70.1809 15.7213 70.1809C15.7213 70.1809 15.7184 72.7438 16.5951 73.9958C17.4718 75.2478 19.8811 76.1218 19.8811 76.1218C19.8811 76.1218 17.3182 76.1189 16.0662 76.9956C14.8142 77.8723 13.9402 80.2816 13.9402 80.2816Z" fill="#AF80C1"/>
<path d="M21.2566 86.7791C21.2566 86.7791 21.2583 85.1772 20.7104 84.3947C20.1625 83.6122 18.6567 83.066 18.6567 83.066C18.6567 83.066 20.2585 83.0678 21.041 82.5199C21.8235 81.972 22.3697 80.4661 22.3697 80.4661C22.3697 80.4661 22.368 82.068 22.9159 82.8505C23.4638 83.633 24.9696 84.1792 24.9696 84.1792C24.9696 84.1792 23.3678 84.1774 22.5853 84.7253C21.8028 85.2732 21.2566 86.7791 21.2566 86.7791Z" fill="#9266A3"/>
<path d="M3.65346 75.8641C3.65346 75.8641 3.65523 74.2623 3.10732 73.4798C2.5594 72.6973 1.05356 72.1511 1.05356 72.1511C1.05356 72.1511 2.6554 72.1529 3.4379 71.605C4.2204 71.057 4.76661 69.5512 4.76661 69.5512C4.76661 69.5512 4.76484 71.153 5.31275 71.9355C5.86067 72.718 7.36651 73.2642 7.36651 73.2642C7.36651 73.2642 5.76467 73.2625 4.98217 73.8104C4.19966 74.3583 3.65346 75.8641 3.65346 75.8641Z" fill="#9266A3"/>
</g>
<defs>
<clipPath id="clip0_616_122">
<rect width="111" height="80" fill="white" transform="translate(0.5 15)"/>
</clipPath>
<clipPath id="clip1_616_122">
<rect width="119.617" height="92.1411" fill="white" transform="matrix(0.965926 -0.258819 0.251334 0.967901 -15.8 24.7)"/>
</clipPath>
<clipPath id="clip2_616_122">
<rect width="119.617" height="92.1411" fill="white" transform="matrix(0.965926 -0.258819 0.251334 0.967901 -14.8 22.7)"/>
</clipPath>
</defs>
</svg>
